<?xml version="1.0" encoding="UTF-8" standalone="no"?>
<!-- Created with Inkscape (http://www.inkscape.org/) -->

<svg
   width="160"
   height="120"
   viewBox="0 0 42.333332 31.749999"
   version="1.1"
   id="svg5"
   inkscape:version="1.2.2 (732a01da63, 2022-12-09)"
   sodipodi:docname="cat.svg"
   xmlns:inkscape="http://www.inkscape.org/namespaces/inkscape"
   xmlns:sodipodi="http://sodipodi.sourceforge.net/DTD/sodipodi-0.dtd"
   xmlns="http://www.w3.org/2000/svg"
   xmlns:svg="http://www.w3.org/2000/svg">
  <sodipodi:namedview
     id="namedview7"
     pagecolor="#ffffff"
     bordercolor="#000000"
     borderopacity="0.25"
     inkscape:showpageshadow="2"
     inkscape:pageopacity="0.0"
     inkscape:pagecheckerboard="0"
     inkscape:deskcolor="#d1d1d1"
     inkscape:document-units="mm"
     showgrid="false"
     inkscape:zoom="5.6568542"
     inkscape:cx="61.783455"
     inkscape:cy="29.521708"
     inkscape:window-width="3360"
     inkscape:window-height="1850"
     inkscape:window-x="3348"
     inkscape:window-y="-12"
     inkscape:window-maximized="1"
     inkscape:current-layer="layer1" />
  <defs
     id="defs2" />
  <g
     inkscape:label="Слой 1"
     inkscape:groupmode="layer"
     id="layer1">
    <path
       style="fill:#64311d;fill-opacity:1;stroke:#ffffff;stroke-width:0.371999;stroke-opacity:1"
       id="path608"
       d="M 26.044455,5.1107925 C 26.026807,4.5356558 26.024346,3.9601815 26.020721,3.3848254 26.026939,2.8561313 25.997967,2.3270895 25.900003,1.80715 25.794773,1.2558365 25.015098,1.4046527 25.120329,1.9559659 v 0 c 0.09156,0.472032 0.110487,0.9538589 0.106658,1.4338718 0.0037,0.5868995 0.0061,1.1739322 0.02471,1.7605928 0.02803,0.5605655 0.820788,0.5209278 0.792761,-0.039638 z" />
    <path
       style="fill:#64311d;fill-opacity:1;stroke:#ffffff;stroke-width:0.371999;stroke-opacity:1"
       id="path606"
       d="M 25.66111,5.252189 C 25.468576,4.8379615 25.241262,4.4394665 24.973556,4.0689218 24.890686,3.9542148 24.801572,3.8441487 24.71558,3.7317622 24.204182,3.1402719 23.646083,2.591807 23.096544,2.0363789 22.861866,1.799186 22.624088,1.5556279 22.390547,1.3169986 22.03544,0.94834607 22.201119,1.1246069 21.892169,0.78947927 c -0.38055,-0.4125544 -0.96399,0.1256248 -0.58344,0.53817923 v 0 c 0.322212,0.3491172 0.151079,0.1672497 0.514538,0.5445276 0.236348,0.241494 0.472805,0.483706 0.710452,0.723895 0.525799,0.5314241 1.059064,1.0566392 1.552261,1.6190449 0.07685,0.099724 0.156551,0.1973144 0.230552,0.299171 0.248222,0.3416543 0.457605,0.7098485 0.634627,1.0928678 0.251005,0.5020117 0.960956,0.1470358 0.709951,-0.3549758 z" />
    <path
       style="fill:#64311d;fill-opacity:1;stroke:#ffffff;stroke-width:0.371999;stroke-opacity:1"
       id="path610"
       d="M 26.99121,4.3679845 C 27.257868,3.8931191 27.428146,3.3702083 27.601991,2.8561832 27.803955,2.263802 28.026824,1.678784 28.229532,1.0866834 28.41116,0.55561767 27.660119,0.29875687 27.478491,0.82982257 v 0 C 27.275855,1.4229582 27.051707,2.0085553 26.850024,2.6020482 26.696668,3.056159 26.547057,3.5173864 26.321555,3.9418398 26.020224,4.4153582 26.689882,4.841503 26.99121,4.3679845 Z" />
    <path
       style="fill:#64311d;fill-opacity:1;stroke:#ffffff;stroke-width:0.371999;stroke-opacity:1"
       id="path612"
       d="m 26.346648,22.660052 c -0.199077,0.312375 -0.385209,0.632817 -0.58225,0.946436 -0.07316,0.116442 -0.245303,0.378744 -0.324236,0.499491 -0.08752,0.141509 -0.188166,0.273015 -0.297077,0.398307 -0.365262,0.426148 0.237403,0.942708 0.602666,0.51656 v 0 c 0.129593,-0.152676 0.253222,-0.309826 0.358812,-0.480573 0.306731,-0.46928 0.601194,-0.945959 0.892352,-1.425035 0.321863,-0.459807 -0.328401,-0.914993 -0.650267,-0.455186 z" />
    <path
       style="fill:#64311d;fill-opacity:1;stroke:#ffffff;stroke-width:0.371999;stroke-opacity:1"
       id="path614"
       d="m 27.256185,23.151764 c 0.145624,1.129141 0.194353,2.267007 0.242869,3.403492 0.02972,0.772798 0.05051,1.545953 0.06024,2.319261 0.0071,0.561224 0.800754,0.551228 0.793687,-0.01 v 0 c -0.0098,-0.781272 -0.03082,-1.562386 -0.0609,-2.34314 -0.04925,-1.152442 -0.09905,-2.306266 -0.246361,-3.451297 -0.05775,-0.558286 -0.847289,-0.47661 -0.789536,0.08168 z" />
    <path
       style="fill:#64311d;fill-opacity:1;stroke:#ffffff;stroke-width:0.371999;stroke-opacity:1"
       id="path616"
       d="m 28.104392,22.736105 c 0.150027,0.69093 0.454416,1.335327 0.757941,1.969737 0.145712,0.304227 0.295672,0.607319 0.480367,0.890078 0.01439,0.02167 0.02881,0.04332 0.04322,0.06498 0.310877,0.467307 0.971746,0.02766 0.660871,-0.439646 v 0 c -0.01373,-0.02063 -0.02746,-0.04127 -0.04119,-0.0619 -0.167386,-0.251072 -0.294293,-0.52629 -0.427344,-0.796269 -0.265338,-0.553802 -0.527881,-1.113978 -0.68448,-1.710065 -0.05876,-0.558182 -0.848143,-0.475089 -0.789387,0.08309 z" />
    <circle
       style="fill:#64311d;fill-opacity:1;stroke:#ffeeaa;stroke-width:0.529167;stroke-dasharray:none;stroke-opacity:1"
       id="circle8826"
       cx="21.279551"
       cy="5.0533586"
       r="0.74147409" />
    <circle
       style="fill:#64311d;fill-opacity:1;stroke:#ffeeaa;stroke-width:0.529167;stroke-dasharray:none;stroke-opacity:1"
       id="circle8820"
       cx="19.35046"
       cy="4.4097848"
       r="0.74147409" />
    <circle
       style="fill:#64311d;fill-opacity:1;stroke:#ffeeaa;stroke-width:0.529167;stroke-dasharray:none;stroke-opacity:1"
       id="circle8822"
       cx="20.472689"
       cy="4.3446417"
       r="0.74147409" />
    <ellipse
       style="fill:#64311d;fill-opacity:1;stroke:#ffeeaa;stroke-width:0.52916667;stroke-dasharray:none;stroke-opacity:1"
       id="ellipse2268"
       cx="10.869696"
       cy="21.897148"
       rx="2.4151576"
       ry="1.862996" />
    <path
       style="fill:#64311d;fill-opacity:1;stroke:#ffeeaa;stroke-width:0.529167;stroke-dasharray:none;stroke-opacity:1"
       id="path1346"
       d="m 15.056827,17.198107 c -0.320365,-0.207467 -0.578173,-0.388009 -0.932476,-0.550737 -0.276668,-0.127071 -0.557034,-0.249187 -0.847297,-0.341055 -0.718185,-0.227306 -1.436529,-0.350773 -2.187701,-0.399996 -0.392204,-0.0257 -0.786033,-0.0095 -1.179049,-0.01428 -0.458623,0.05828 -0.920819,0.09322 -1.375867,0.174848 -0.914424,0.164026 -1.785453,0.419512 -2.630353,0.812788 -0.448852,0.208927 -0.880946,0.455226 -1.297801,0.72234 -0.379529,0.243197 -0.752306,0.502664 -1.086311,0.805364 -0.357341,0.323849 -0.652245,0.710533 -0.978368,1.0658 -0.239943,0.4477 -0.530746,0.871662 -0.719831,1.343102 -0.374187,0.932955 -0.472296,1.837597 -0.349791,2.83652 0.110683,0.90253 0.475572,1.822375 0.882395,2.627543 0.184957,0.36606 0.413274,0.708548 0.619911,1.062822 0.486167,0.732619 1.009625,1.444298 1.610632,2.087791 0.134411,0.143913 0.279261,0.277709 0.418891,0.416562 2.007098,1.961389 4.78092,-0.877077 2.773821,-2.838466 v 0 C 7.703772,26.939273 7.626276,26.873143 7.556041,26.799714 7.118505,26.342285 6.742292,25.830318 6.383087,25.310659 6.004802,24.697139 5.92799,24.620233 5.641105,23.976105 5.563815,23.802578 5.345984,23.264704 5.337743,23.031269 5.325593,22.687212 5.445107,22.389376 5.543251,22.069535 5.669242,21.902115 5.77196,21.714325 5.921222,21.567275 6.122784,21.3687 6.3547,21.202207 6.587245,21.041017 c 0.245987,-0.170508 0.500049,-0.33148 0.766919,-0.466994 0.270978,-0.137601 0.553502,-0.254098 0.841903,-0.349952 0.60959,-0.202606 1.080491,-0.258733 1.70394,-0.3633 0.252513,-0.0031 0.505165,-0.01819 0.757539,-0.0093 0.504693,0.01787 1.110927,0.09221 1.584092,0.289622 0.13791,0.05754 0.315013,0.165062 0.45288,0.246094 2.255047,1.670405 4.617356,-1.518713 2.362309,-3.189118 z" />
    <ellipse
       style="fill:#64311d;fill-opacity:1;stroke:#ffffff;stroke-width:0.272375;stroke-opacity:0"
       id="ellipse521"
       cx="13.320792"
       cy="-16.786047"
       rx="4.1939311"
       ry="2.1201844"
       transform="matrix(0.81910066,-0.57364982,-0.41763954,-0.9086128,0,0)" />
    <ellipse
       style="fill:#64311d;fill-opacity:1;stroke:#ffffff;stroke-width:0.272375;stroke-opacity:0"
       id="ellipse525"
       cx="-25.632896"
       cy="-6.1524358"
       rx="4.1939311"
       ry="2.1201844"
       transform="matrix(-0.81910066,-0.57364982,0.41763954,-0.9086128,0,0)" />
    <circle
       id="path618"
       style="fill:#64311d;fill-opacity:1;stroke:#ffffff;stroke-width:0.264583"
       cx="4.07022"
       cy="11.737377"
       r="0.001172564" />
    <circle
       id="path620"
       style="fill:#64311d;fill-opacity:1;stroke:#ffffff;stroke-width:0.264583"
       cx="3.5022819"
       cy="11.484962"
       r="0.001172564" />
    <ellipse
       style="fill:#64311d;fill-opacity:1;stroke:#ffeeaa;stroke-width:0.53003117;stroke-opacity:1;stroke-dasharray:none"
       id="ellipse517"
       cx="-24.348379"
       cy="22.56477"
       rx="9.110714"
       ry="4.3434157"
       transform="matrix(-0.84861484,0.5290112,0.45882624,0.88852601,0,0)" />
    <ellipse
       style="fill:#64311d;fill-opacity:1;stroke:#ffeeaa;stroke-width:0.55646223;stroke-opacity:1;stroke-dasharray:none"
       id="ellipse523"
       cx="42.640423"
       cy="-13.527111"
       rx="7.4666176"
       ry="4.3661165"
       transform="matrix(0.72156008,0.69235183,-0.31806633,0.94806846,0,0)" />
    <ellipse
       style="fill:#64311d;fill-opacity:1;stroke:#ffeeaa;stroke-width:0.529167;stroke-dasharray:none;stroke-opacity:1"
       id="path511"
       cx="15.728718"
       cy="13.725161"
       rx="9.5760593"
       ry="7.1623244" />
    <circle
       style="fill:#ffeeaa;fill-opacity:1;stroke:#ffeeaa;stroke-width:0.529167;stroke-dasharray:none;stroke-opacity:1"
       id="circle3755"
       cx="21.46261"
       cy="22.190351"
       r="0.74147409" />
    <ellipse
       style="fill:#91311d;fill-opacity:1;stroke:#ffeeaa;stroke-width:0.529167;stroke-dasharray:none;stroke-opacity:1"
       id="path438"
       cx="28.791281"
       cy="13.535847"
       rx="8.282423"
       ry="9.9704609" />
    <circle
       id="path1348"
       style="fill:#64311d;fill-opacity:1;stroke:#ffffff;stroke-width:0.264583"
       cx="1.7353648"
       cy="12.557732"
       r="0.0083398093" />
    <path
       id="path2225"
       style="fill:#64311d;fill-opacity:1;stroke:#ffeeaa;stroke-width:0.529167;stroke-dasharray:none;stroke-opacity:1"
       d="M 7.9747,9.5771453 A 2.0746555,4.216639 51.618717 0 0 4.983151,10.732631 2.0746555,4.216639 51.618717 0 0 2.433436,15.064666 2.0746555,4.216639 51.618717 0 0 6.754102,14.585108 2.0746555,4.216639 51.618717 0 0 9.303817,10.253074 2.0746555,4.216639 51.618717 0 0 7.9747,9.5771453 Z" />
    <ellipse
       style="fill:#64311d;fill-opacity:1;stroke:#ffeeaa;stroke-width:0.529167;stroke-dasharray:none;stroke-opacity:1"
       id="path2266"
       cx="4.8116941"
       cy="14.924138"
       rx="2.4151576"
       ry="1.862996" />
    <circle
       style="fill:#64311d;fill-opacity:1;stroke:#ffeeaa;stroke-width:0.529167;stroke-dasharray:none;stroke-opacity:1"
       id="circle3763"
       cx="6.9887886"
       cy="16.012686"
       r="0.74147409" />
    <ellipse
       style="fill:#64311d;fill-opacity:1;stroke:#ffeeaa;stroke-width:0.475385;stroke-dasharray:none;stroke-opacity:1"
       id="ellipse2276"
       cx="13.409639"
       cy="21.928699"
       rx="1.9214392"
       ry="1.8898871" />
    <circle
       style="fill:#64311d;fill-opacity:1;stroke:#ffffff;stroke-width:0;stroke-dasharray:none;stroke-opacity:1"
       id="circle3751"
       cx="20.97596"
       cy="5.0738997"
       r="0.74147409" />
    <circle
       style="fill:#64311d;fill-opacity:1;stroke:#ffeeaa;stroke-width:0.529167;stroke-dasharray:none;stroke-opacity:1"
       id="circle8814"
       cx="21.420197"
       cy="23.018965"
       r="0.74147409" />
    <circle
       style="fill:#64311d;fill-opacity:1;stroke:#ffeeaa;stroke-width:0.529167;stroke-dasharray:none;stroke-opacity:1"
       id="circle3757"
       cx="20.463602"
       cy="23.794754"
       r="0.74147409" />
    <circle
       style="fill:#64311d;fill-opacity:1;stroke:#ffeeaa;stroke-width:0.529167;stroke-dasharray:none;stroke-opacity:1"
       id="circle3759"
       cx="6.6732674"
       cy="13.9618"
       r="0.74147409" />
    <circle
       style="fill:#64311d;fill-opacity:1;stroke:#ffeeaa;stroke-width:0.529167;stroke-dasharray:none;stroke-opacity:1"
       id="circle3761"
       cx="7.3358631"
       cy="14.845258"
       r="0.74147409" />
    <circle
       style="fill:#64311d;fill-opacity:1;stroke:#ffeeaa;stroke-width:0.529167;stroke-dasharray:none;stroke-opacity:1"
       id="circle3776"
       cx="13.109896"
       cy="20.335321"
       r="0.74147409" />
    <circle
       style="fill:#64311d;fill-opacity:1;stroke:#ffeeaa;stroke-width:0.529167;stroke-dasharray:none;stroke-opacity:1"
       id="circle3778"
       cx="14.214218"
       cy="20.745497"
       r="0.74147409" />
    <circle
       style="fill:#64311d;fill-opacity:1;stroke:#ffffff;stroke-width:0;stroke-dasharray:none;stroke-opacity:1"
       id="ellipse3782"
       cx="13.395958"
       cy="21.883469"
       r="1.6553432" />
    <circle
       style="fill:#64311d;fill-opacity:1;stroke:#ffeeaa;stroke-width:0.529167;stroke-dasharray:none;stroke-opacity:1"
       id="circle25634"
       cx="14.9158"
       cy="21.493851"
       r="0.74147409" />
    <circle
       style="fill:#64311d;fill-opacity:1;stroke:#ffffff;stroke-width:0;stroke-dasharray:none;stroke-opacity:1"
       id="circle3784"
       cx="14.020329"
       cy="21.05644"
       r="0.79999948" />
    <circle
       style="fill:#64311d;fill-opacity:1;stroke:#ffffff;stroke-width:0;stroke-dasharray:none;stroke-opacity:1"
       id="circle3786"
       cx="13.168421"
       cy="20.677814"
       r="0.79999948" />
    <path
       style="fill:#ffeeaa;fill-opacity:1;stroke:#ffffff;stroke-width:0;stroke-dasharray:none;stroke-opacity:1"
       id="path5707"
       d="m 28.031869,12.817562 c -0.03767,0.252781 -0.08288,0.504206 -0.119526,0.757174 -0.05347,0.306884 -0.126947,0.610148 -0.206258,0.911283 -0.02868,0.111071 -0.06623,0.219145 -0.118274,0.321439 -0.01233,0.02422 -0.02471,0.04852 -0.03957,0.07128 -0.0037,0.0056 -0.0195,0.01816 -0.01537,0.0129 0.01193,-0.01521 0.02596,-0.02865 0.03893,-0.04298 0.571542,-0.0096 0.09287,-0.06553 0.345088,0.07378 0.01048,0.0058 -2.64e-4,-0.02398 -0.0016,-0.0359 -0.0099,-0.0975 -0.0244,-0.192725 -0.04274,-0.289007 -0.06365,-0.262475 -0.194107,-0.491506 -0.355262,-0.705243 -0.18534,-0.21258 -0.435321,-0.348064 -0.677987,-0.484004 -0.111524,-0.06488 -0.223276,-0.132422 -0.321852,-0.216329 -0.04735,-0.0403 -0.05138,-0.0401 -0.02611,-0.03102 0.0298,0.04915 0.04486,0.05917 0.03862,0.126042 -0.0027,0.02879 -0.01812,0.05501 -0.02461,0.08319 -7.93e-4,0.0032 2.65e-4,0.01021 0.0034,0.0092 0.01868,-0.0063 0.03478,-0.01858 0.05213,-0.02795 0.02666,-0.01439 0.05326,-0.02888 0.07989,-0.04332 0.167151,-0.08622 0.335791,-0.170338 0.507249,-0.247739 0.159615,-0.06749 0.315888,-0.142456 0.470506,-0.220622 0.110754,-0.04413 0.214468,-0.108462 0.3294,-0.14164 0.04431,0.0049 0.08835,0.0154 0.132737,0.02343 0.04108,0.009 0.08327,0.01056 0.124748,0.01646 0.01064,0.0015 -0.02183,-0.0017 -0.03171,-0.0059 -0.01638,-0.007 -0.03113,-0.01743 -0.04669,-0.02615 -0.07793,-0.09489 -0.05054,-0.04143 -0.082,-0.160449 -0.0057,0.374134 0.52346,0.38212 0.529106,0.008 v 0 c -0.03035,-0.179772 0.0031,-0.09796 -0.09894,-0.246029 -0.02723,-0.01891 -0.05246,-0.0411 -0.0817,-0.05673 -0.06832,-0.03652 -0.144418,-0.03822 -0.218676,-0.0499 -0.128534,-0.02323 -0.25732,-0.04555 -0.386148,-0.0073 -0.141142,0.04623 -0.27382,0.112964 -0.408964,0.174066 -0.147961,0.07487 -0.297593,0.146448 -0.450393,0.210974 -0.182718,0.0833 -0.363233,0.171912 -0.541303,0.2647 -0.09649,0.05258 -0.234857,0.11454 -0.301789,0.204029 -0.115612,0.154578 -0.103462,0.249538 -0.03096,0.41341 0.02262,0.0289 0.04303,0.05965 0.06783,0.08669 0.12101,0.131897 0.308269,0.227825 0.457695,0.322679 0.179734,0.100634 0.367599,0.197631 0.51575,0.343157 0.113403,0.146419 0.207878,0.307597 0.257066,0.48761 0.0052,0.02474 0.01185,0.04922 0.01574,0.07421 0.02082,0.133564 0.01963,0.427673 0.158006,0.497152 0.09446,0.04743 0.210392,0.02065 0.315587,0.03098 0.03459,-0.02722 0.07274,-0.05043 0.103757,-0.08165 0.04734,-0.04765 0.09298,-0.134017 0.121798,-0.192722 0.06409,-0.130564 0.112771,-0.267339 0.149336,-0.408069 0.08422,-0.320514 0.162465,-0.643258 0.218207,-0.970063 0.03692,-0.254934 0.08285,-0.508258 0.120346,-0.763081 0.04945,-0.370895 -0.47507,-0.440832 -0.524523,-0.06994 z" />
    <circle
       style="fill:#251573;fill-opacity:1;stroke:#ffffff;stroke-width:0;stroke-dasharray:none;stroke-opacity:1"
       id="path5719"
       cx="30.668087"
       cy="9.7669172"
       r="1.766917" />
    <path
       style="fill:#ffeeaa;fill-opacity:1;stroke:#ffeeaa;stroke-width:0;stroke-dasharray:none;stroke-opacity:1"
       id="path5721"
       d="m 29.73543,16.619598 c 0.03707,0 0.07413,0 0.111196,0 0.122628,0 0.248883,-0.0072 0.370727,0.0084 0.01038,0.0013 -0.02107,-0.0013 -0.03162,-0.0019 -0.04398,-0.0215 -0.116615,-0.02355 -0.131939,-0.06452 -0.04443,-0.118854 -0.02046,-0.248705 -0.03162,-0.372998 -0.0031,-0.03428 -0.05458,0.05155 -0.07534,0.0811 -0.02008,0.02859 -0.04137,0.05839 -0.04784,0.09118 -0.01322,0.06709 -0.0069,0.135915 -0.01038,0.203874 0.130424,0.416128 0.397391,0.785719 0.671325,1.14386 0.207677,0.2604 0.444482,0.501956 0.698713,0.730413 0.07978,0.07955 0.178951,0.141146 0.277991,0.201985 0.39447,0.239323 0.794728,-0.232401 0.400257,-0.471724 v 0 c -0.06491,-0.0386 -0.128985,-0.07421 -0.178499,-0.128383 -0.226166,-0.202716 -0.436754,-0.417035 -0.622139,-0.647861 -0.122759,-0.160098 -0.244176,-0.320098 -0.349003,-0.489328 -0.114395,-0.184666 -0.08187,-0.142911 -0.174205,-0.321552 -0.01284,-0.0249 -0.02739,-0.04915 -0.04108,-0.07373 -0.01435,0.02634 -0.02341,0.05103 -0.04567,0.07262 -0.01038,0.0101 -0.0448,0.03774 -0.03354,0.02837 0.147922,-0.122952 0.154242,-0.121975 0.055,-0.451046 -0.01541,-0.0511 -0.104546,-0.05754 -0.156804,-0.0863 -0.03562,-0.0072 -0.07074,-0.01649 -0.106839,-0.02186 -0.180364,-0.02686 -0.367175,-0.0027 -0.548726,-0.01124 -0.485502,0 -0.485502,0.580583 0,0.580583 z" />
    <ellipse
       style="fill:#ffffff;fill-opacity:1;stroke:#ffffff;stroke-width:0;stroke-dasharray:none;stroke-opacity:1"
       id="circle5723"
       cx="30.147476"
       cy="10.350632"
       rx="1.0254431"
       ry="0.96233892" />
    <circle
       style="fill:#64311d;fill-opacity:1;stroke:#ffffff;stroke-width:0;stroke-dasharray:none;stroke-opacity:1"
       id="circle5725"
       cx="6.984211"
       cy="14.872231"
       r="0.79999948" />
    <circle
       style="fill:#64311d;fill-opacity:1;stroke:#ffffff;stroke-width:0;stroke-dasharray:none;stroke-opacity:1"
       id="circle5727"
       cx="6.6371384"
       cy="14.083428"
       r="0.79999948" />
    <circle
       style="fill:#64311d;fill-opacity:1;stroke:#ffffff;stroke-width:0;stroke-dasharray:none;stroke-opacity:1"
       id="circle5729"
       cx="6.889555"
       cy="15.692585"
       r="0.79999948" />
    <circle
       style="fill:#64311d;fill-opacity:1;stroke:#ffffff;stroke-width:0;stroke-dasharray:none;stroke-opacity:1"
       id="circle8816"
       cx="20.570429"
       cy="23.613684"
       r="0.74147409" />
    <circle
       style="fill:#64311d;fill-opacity:1;stroke:#ffffff;stroke-width:0;stroke-dasharray:none;stroke-opacity:1"
       id="circle8818"
       cx="21.173006"
       cy="22.926661"
       r="0.74147409" />
    <circle
       style="fill:#64311d;fill-opacity:1;stroke:#ffffff;stroke-width:0;stroke-dasharray:none;stroke-opacity:1"
       id="circle3753"
       cx="21.302015"
       cy="22.400438"
       r="0.74147409" />
    <circle
       style="fill:#64311d;fill-opacity:1;stroke:#ffffff;stroke-width:0;stroke-dasharray:none;stroke-opacity:1"
       id="path3744"
       cx="19.540628"
       cy="4.6164904"
       r="0.74147409" />
    <circle
       style="fill:#64311d;fill-opacity:1;stroke:#ffffff;stroke-width:0;stroke-dasharray:none;stroke-opacity:1"
       id="circle3749"
       cx="20.34207"
       cy="4.5871234"
       r="0.74147409" />
    <path
       style="fill:#ff9696;fill-opacity:1;stroke:#ffffff;stroke-width:0.371999;stroke-opacity:1"
       id="path17283"
       d="m 22.47258,-30.541812 c -0.01765,-0.575136 -0.02011,-1.150611 -0.02373,-1.725967 0.0062,-0.528694 -0.02275,-1.057736 -0.120718,-1.577675 -0.10523,-0.551314 -0.884905,-0.402498 -0.779674,0.148816 v 0 c 0.09156,0.472032 0.110487,0.953859 0.106658,1.433871 0.0037,0.5869 0.0061,1.173933 0.02471,1.760593 0.02803,0.560566 0.820788,0.520928 0.792761,-0.03964 z" />
    <path
       style="fill:#ff9696;fill-opacity:1;stroke:#ffffff;stroke-width:0.371999;stroke-opacity:1"
       id="path17285"
       d="m 22.089235,-30.400415 c -0.192534,-0.414228 -0.419848,-0.812723 -0.687554,-1.183267 -0.08287,-0.114707 -0.171984,-0.224774 -0.257976,-0.33716 -0.511398,-0.59149 -1.069497,-1.139955 -1.619036,-1.695383 -0.234678,-0.237193 -0.472456,-0.480751 -0.705997,-0.719381 -0.355107,-0.368652 -0.189428,-0.192391 -0.498378,-0.527519 -0.38055,-0.412554 -0.96399,0.125625 -0.58344,0.538179 v 0 c 0.322212,0.349117 0.151079,0.16725 0.514538,0.544528 0.236348,0.241494 0.472805,0.483706 0.710452,0.723895 0.525799,0.531424 1.059064,1.056639 1.552261,1.619045 0.07685,0.09972 0.156551,0.197314 0.230552,0.299171 0.248222,0.341654 0.457605,0.709848 0.634627,1.092868 0.251005,0.502011 0.960956,0.147035 0.709951,-0.354976 z" />
    <path
       style="fill:#ff9696;fill-opacity:1;stroke:#ffffff;stroke-width:0.371999;stroke-opacity:1"
       id="path17287"
       d="m 23.419335,-31.28462 c 0.266658,-0.474865 0.436936,-0.997776 0.610781,-1.511801 0.201964,-0.592381 0.424833,-1.177399 0.627541,-1.7695 0.181628,-0.531066 -0.569413,-0.787926 -0.751041,-0.256861 v 0 c -0.202636,0.593136 -0.426784,1.178733 -0.628467,1.772226 -0.153356,0.454111 -0.302967,0.915338 -0.528469,1.339792 -0.301331,0.473518 0.368327,0.899663 0.669655,0.426144 z" />
    <path
       style="fill:#ff9696;fill-opacity:1;stroke:#ffffff;stroke-width:0.371999;stroke-opacity:1"
       id="path17289"
       d="m 22.774773,-12.992552 c -0.199077,0.312375 -0.385209,0.632817 -0.58225,0.946436 -0.07316,0.116442 -0.245303,0.378744 -0.324236,0.499491 -0.08752,0.141509 -0.188166,0.273015 -0.297077,0.398307 -0.365262,0.426148 0.237403,0.942708 0.602666,0.51656 v 0 c 0.129593,-0.152676 0.253222,-0.309826 0.358812,-0.480573 0.306731,-0.46928 0.601194,-0.945959 0.892352,-1.425035 0.321863,-0.459807 -0.328401,-0.914993 -0.650267,-0.455186 z" />
    <path
       style="fill:#ff9696;fill-opacity:1;stroke:#ffffff;stroke-width:0.371999;stroke-opacity:1"
       id="path17291"
       d="m 23.68431,-12.50084 c 0.145624,1.129141 0.194353,2.267007 0.242869,3.4034918 0.02972,0.772798 0.05051,1.545953 0.06024,2.319261 0.0071,0.561224 0.800754,0.551228 0.793687,-0.01 v 0 c -0.0098,-0.781272 -0.03082,-1.562386 -0.0609,-2.34314 -0.04925,-1.1524418 -0.09905,-2.3062658 -0.246361,-3.4512968 -0.05775,-0.558286 -0.847289,-0.47661 -0.789536,0.08168 z" />
    <path
       style="fill:#ff9696;fill-opacity:1;stroke:#ffffff;stroke-width:0.371999;stroke-opacity:1"
       id="path17293"
       d="m 24.532517,-12.916499 c 0.150027,0.69093 0.454416,1.335327 0.757941,1.969737 0.145712,0.304227 0.295672,0.607319 0.480367,0.890078 0.01439,0.02167 0.02881,0.04332 0.04322,0.06498 0.310877,0.467307 0.971746,0.02766 0.660871,-0.4396458 v 0 c -0.01373,-0.02063 -0.02746,-0.04127 -0.04119,-0.0619 -0.167386,-0.251072 -0.294293,-0.52629 -0.427344,-0.796269 -0.265338,-0.553802 -0.527881,-1.113978 -0.68448,-1.710065 -0.05876,-0.558182 -0.848143,-0.475089 -0.789387,0.08309 z" />
    <circle
       style="fill:#ff9696;fill-opacity:1;stroke:#ffffff;stroke-width:0.529167;stroke-dasharray:none;stroke-opacity:1"
       id="circle17295"
       cx="17.707676"
       cy="-30.599245"
       r="0.74147409" />
    <circle
       style="fill:#ff9696;fill-opacity:1;stroke:#ffffff;stroke-width:0.529167;stroke-dasharray:none;stroke-opacity:1"
       id="circle17297"
       cx="15.778585"
       cy="-31.242819"
       r="0.74147409" />
    <circle
       style="fill:#ff9696;fill-opacity:1;stroke:#ffffff;stroke-width:0.529167;stroke-dasharray:none;stroke-opacity:1"
       id="circle17299"
       cx="16.900814"
       cy="-31.307962"
       r="0.74147409" />
    <ellipse
       style="fill:#ff9696;fill-opacity:1;stroke:#ffffff;stroke-width:0.529167;stroke-dasharray:none;stroke-opacity:1"
       id="ellipse17301"
       cx="7.2978206"
       cy="-13.755456"
       rx="2.4151576"
       ry="1.862996" />
    <path
       style="fill:#ff9696;fill-opacity:1;stroke:#ffffff;stroke-width:0.529167;stroke-dasharray:none;stroke-opacity:1"
       id="path17303"
       d="m 11.484952,-18.454497 c -0.320365,-0.207467 -0.578173,-0.388009 -0.932476,-0.550737 -0.276668,-0.127071 -0.557034,-0.249187 -0.847297,-0.341055 -0.718185,-0.227306 -1.436529,-0.350773 -2.187701,-0.399996 -0.392204,-0.0257 -0.786033,-0.0095 -1.179049,-0.01428 -0.458623,0.05828 -0.920819,0.09322 -1.375867,0.174848 -0.914424,0.164026 -1.785453,0.419512 -2.630353,0.812788 -0.448852,0.208927 -0.880946,0.455226 -1.297801,0.72234 -0.37952901,0.243197 -0.75230601,0.502664 -1.08631101,0.805364 -0.357341,0.323849 -0.652245,0.710533 -0.97836799,1.0658 -0.239943,0.4477 -0.530746,0.871662 -0.719831,1.343102 -0.374187,0.932955 -0.472296,1.837597 -0.349791,2.83652 0.110683,0.90253 0.475572,1.822375 0.882395,2.6275428 0.184957,0.36606 0.41327399,0.708548 0.61991099,1.062822 0.486167,0.732619 1.009625,1.444298 1.61063201,2.087791 0.134411,0.143913 0.279261,0.277709 0.418891,0.416562 2.007098,1.961389 4.78092,-0.877077 2.773821,-2.838466 v 0 c -0.07386,-0.06978 -0.151356,-0.13591 -0.221591,-0.209339 -0.437536,-0.457429 -0.813749,-0.969396 -1.172954,-1.4890548 -0.378285,-0.61352 -0.455097,-0.690426 -0.741982,-1.334554 -0.07729,-0.173527 -0.295121,-0.711401 -0.303362,-0.944836 -0.01215,-0.344057 0.107364,-0.641893 0.205508,-0.961734 0.125991,-0.16742 0.228709,-0.35521 0.377971,-0.50226 0.201562,-0.198575 0.433478,-0.365068 0.666023,-0.526258 0.245987,-0.170508 0.500049,-0.33148 0.766919,-0.466994 0.270978,-0.137601 0.553502,-0.254098 0.841903,-0.349952 0.60959,-0.202606 1.080491,-0.258733 1.70394,-0.3633 0.252513,-0.0031 0.505165,-0.01819 0.757539,-0.0093 0.504693,0.01787 1.110927,0.09221 1.584092,0.289622 0.13791,0.05754 0.315013,0.165062 0.45288,0.246094 2.255047,1.670405 4.617356,-1.518713 2.362309,-3.189118 z" />
    <ellipse
       style="fill:#ff9696;fill-opacity:1;stroke:#ffffff;stroke-width:0.272375;stroke-opacity:0"
       id="ellipse17305"
       cx="25.156734"
       cy="14.97987"
       rx="4.1939311"
       ry="2.1201844"
       transform="matrix(0.81910066,-0.57364982,-0.41763954,-0.9086128,0,0)" />
    <ellipse
       style="fill:#ff9696;fill-opacity:1;stroke:#ffffff;stroke-width:0.272375;stroke-opacity:0"
       id="ellipse17307"
       cx="-7.1993299"
       cy="21.448092"
       rx="4.1939311"
       ry="2.1201844"
       transform="matrix(-0.81910066,-0.57364982,0.41763954,-0.9086128,0,0)" />
    <circle
       id="circle17309"
       style="fill:#ff9696;fill-opacity:1;stroke:#ffffff;stroke-width:0.264583"
       cx="0.49834499"
       cy="-23.915228"
       r="0.001172564" />
    <circle
       id="circle17311"
       style="fill:#ff9696;fill-opacity:1;stroke:#ffffff;stroke-width:0.264583"
       cx="-0.069593102"
       cy="-24.167643"
       r="0.001172564" />
    <ellipse
       style="fill:#ff9696;fill-opacity:1;stroke:#ffffff;stroke-width:0.530031;stroke-dasharray:none;stroke-opacity:1"
       id="ellipse17313"
       cx="-37.576141"
       cy="-9.6852379"
       rx="9.110714"
       ry="4.3434157"
       transform="matrix(-0.84861484,0.5290112,0.45882624,0.88852601,0,0)" />
    <ellipse
       style="fill:#ff9696;fill-opacity:1;stroke:#ffffff;stroke-width:0.556462;stroke-dasharray:none;stroke-opacity:1"
       id="ellipse17315"
       cx="26.35574"
       cy="-39.240311"
       rx="7.4666176"
       ry="4.3661165"
       transform="matrix(0.72156008,0.69235183,-0.31806633,0.94806846,0,0)" />
    <ellipse
       style="fill:#ff9696;fill-opacity:1;stroke:#ffffff;stroke-width:0.529167;stroke-dasharray:none;stroke-opacity:1"
       id="ellipse17317"
       cx="12.156843"
       cy="-21.927444"
       rx="9.5760593"
       ry="7.1623244" />
    <circle
       style="fill:#ff9696;fill-opacity:1;stroke:#ffffff;stroke-width:0.529167;stroke-dasharray:none;stroke-opacity:1"
       id="circle17319"
       cx="17.890736"
       cy="-13.462253"
       r="0.74147409" />
    <ellipse
       style="fill:#ff9696;fill-opacity:1;stroke:#ffffff;stroke-width:0.529167;stroke-dasharray:none;stroke-opacity:1"
       id="ellipse17321"
       cx="25.219406"
       cy="-22.116758"
       rx="8.282423"
       ry="9.9704609" />
    <circle
       id="circle17323"
       style="fill:#ff9696;fill-opacity:1;stroke:#ffffff;stroke-width:0.264583"
       cx="-1.8365102"
       cy="-23.094873"
       r="0.0083398093" />
    <path
       id="path17325"
       style="fill:#ff9696;fill-opacity:1;stroke:#ffffff;stroke-width:0.529167;stroke-dasharray:none;stroke-opacity:1"
       d="m 4.402825,-26.075459 a 2.0746555,4.216639 51.618717 0 0 -2.991549,1.155486 2.0746555,4.216639 51.618717 0 0 -2.549715,4.332035 2.0746555,4.216639 51.618717 0 0 4.320666,-0.479558 2.0746555,4.216639 51.618717 0 0 2.549715,-4.332034 2.0746555,4.216639 51.618717 0 0 -1.329117,-0.675929 z" />
    <ellipse
       style="fill:#ff9696;fill-opacity:1;stroke:#ffffff;stroke-width:0.529167;stroke-dasharray:none;stroke-opacity:1"
       id="ellipse17327"
       cx="1.2398192"
       cy="-20.728466"
       rx="2.4151576"
       ry="1.862996" />
    <circle
       style="fill:#ff9696;fill-opacity:1;stroke:#ffffff;stroke-width:0.529167;stroke-dasharray:none;stroke-opacity:1"
       id="circle17329"
       cx="3.4169135"
       cy="-19.639919"
       r="0.74147409" />
    <ellipse
       style="fill:#ff9696;fill-opacity:1;stroke:#ffffff;stroke-width:0.475385;stroke-dasharray:none;stroke-opacity:1"
       id="ellipse17331"
       cx="9.8377647"
       cy="-13.723905"
       rx="1.9214392"
       ry="1.8898871" />
    <circle
       style="fill:#ff9696;fill-opacity:1;stroke:#ffffff;stroke-width:0;stroke-dasharray:none;stroke-opacity:1"
       id="circle17333"
       cx="17.404085"
       cy="-30.578705"
       r="0.74147409" />
    <circle
       style="fill:#ff9696;fill-opacity:1;stroke:#ffffff;stroke-width:0.529167;stroke-dasharray:none;stroke-opacity:1"
       id="circle17335"
       cx="17.848322"
       cy="-12.633639"
       r="0.74147409" />
    <circle
       style="fill:#ff9696;fill-opacity:1;stroke:#ffffff;stroke-width:0.529167;stroke-dasharray:none;stroke-opacity:1"
       id="circle17337"
       cx="16.891727"
       cy="-11.85785"
       r="0.74147409" />
    <circle
       style="fill:#ff9696;fill-opacity:1;stroke:#ffffff;stroke-width:0.529167;stroke-dasharray:none;stroke-opacity:1"
       id="circle17339"
       cx="3.1013923"
       cy="-21.690805"
       r="0.74147409" />
    <circle
       style="fill:#ff9696;fill-opacity:1;stroke:#ffffff;stroke-width:0.529167;stroke-dasharray:none;stroke-opacity:1"
       id="circle17341"
       cx="3.763988"
       cy="-20.807346"
       r="0.74147409" />
    <circle
       style="fill:#ff9696;fill-opacity:1;stroke:#ffffff;stroke-width:0.529167;stroke-dasharray:none;stroke-opacity:1"
       id="circle17343"
       cx="9.5380211"
       cy="-15.317283"
       r="0.74147409" />
    <circle
       style="fill:#ff9696;fill-opacity:1;stroke:#ffffff;stroke-width:0.529167;stroke-dasharray:none;stroke-opacity:1"
       id="circle17345"
       cx="10.642344"
       cy="-14.907107"
       r="0.74147409" />
    <circle
       style="fill:#ff9696;fill-opacity:1;stroke:#ffffff;stroke-width:0;stroke-dasharray:none;stroke-opacity:1"
       id="circle17347"
       cx="11.368045"
       cy="-14.0552"
       r="0.74147409" />
    <circle
       style="fill:#ff9696;fill-opacity:1;stroke:#ffffff;stroke-width:0;stroke-dasharray:none;stroke-opacity:1"
       id="circle17349"
       cx="9.8240833"
       cy="-13.769135"
       r="1.6553432" />
    <circle
       style="fill:#ff9696;fill-opacity:1;stroke:#ffffff;stroke-width:0;stroke-dasharray:none;stroke-opacity:1"
       id="circle17351"
       cx="10.448455"
       cy="-14.596164"
       r="0.79999948" />
    <circle
       style="fill:#ff9696;fill-opacity:1;stroke:#ffffff;stroke-width:0;stroke-dasharray:none;stroke-opacity:1"
       id="circle17353"
       cx="9.5965462"
       cy="-14.97479"
       r="0.79999948" />
    <path
       style="fill:#ff9696;fill-opacity:1;stroke:#ffffff;stroke-width:0;stroke-dasharray:none;stroke-opacity:1"
       id="path17355"
       d="m 24.492092,-22.789259 c -0.03767,0.252781 -0.08288,0.504206 -0.119526,0.757174 -0.05347,0.306884 -0.126947,0.610148 -0.206258,0.911283 -0.02868,0.111071 -0.06623,0.219145 -0.118274,0.321439 -0.01233,0.02422 -0.02471,0.04852 -0.03957,0.07128 -0.0037,0.0056 -0.0195,0.01816 -0.01537,0.0129 0.01193,-0.01521 0.02596,-0.02865 0.03893,-0.04298 0.571542,-0.0096 0.09287,-0.06553 0.345088,0.07378 0.01048,0.0058 -2.64e-4,-0.02398 -0.0016,-0.0359 -0.0099,-0.0975 -0.0244,-0.192725 -0.04274,-0.289007 -0.06365,-0.262475 -0.194107,-0.491506 -0.355262,-0.705243 -0.18534,-0.21258 -0.435321,-0.348064 -0.677987,-0.484004 -0.111524,-0.06488 -0.223276,-0.132422 -0.321852,-0.216329 -0.04735,-0.0403 -0.05138,-0.0401 -0.02611,-0.03102 0.0298,0.04915 0.04486,0.05917 0.03862,0.126042 -0.0027,0.02879 -0.01812,0.05501 -0.02461,0.08319 -7.93e-4,0.0032 2.65e-4,0.01021 0.0034,0.0092 0.01868,-0.0063 0.03478,-0.01858 0.05213,-0.02795 0.02666,-0.01439 0.05326,-0.02888 0.07989,-0.04332 0.167151,-0.08622 0.335791,-0.170338 0.507249,-0.247739 0.159615,-0.06749 0.315888,-0.142456 0.470506,-0.220622 0.110754,-0.04413 0.214468,-0.108462 0.3294,-0.14164 0.04431,0.0049 0.08835,0.0154 0.132737,0.02343 0.04108,0.009 0.08327,0.01056 0.124748,0.01646 0.01064,0.0015 -0.02183,-0.0017 -0.03171,-0.0059 -0.01638,-0.007 -0.03113,-0.01743 -0.04669,-0.02615 -0.07793,-0.09489 -0.05054,-0.04143 -0.082,-0.160449 -0.0057,0.374134 0.52346,0.38212 0.529106,0.008 v 0 c -0.03035,-0.179772 0.0031,-0.09796 -0.09894,-0.246029 -0.02723,-0.01891 -0.05246,-0.0411 -0.0817,-0.05673 -0.06832,-0.03652 -0.144418,-0.03822 -0.218676,-0.0499 -0.128534,-0.02323 -0.25732,-0.04555 -0.386148,-0.0073 -0.141142,0.04623 -0.27382,0.112964 -0.408964,0.174066 -0.147961,0.07487 -0.297593,0.146448 -0.450393,0.210974 -0.182718,0.0833 -0.363233,0.171912 -0.541303,0.2647 -0.09649,0.05258 -0.234857,0.11454 -0.301789,0.204029 -0.115612,0.154578 -0.103462,0.249538 -0.03096,0.41341 0.02262,0.0289 0.04303,0.05965 0.06783,0.08669 0.12101,0.131897 0.308269,0.227825 0.457695,0.322679 0.179734,0.100634 0.367599,0.197631 0.51575,0.343157 0.113403,0.146419 0.207878,0.307597 0.257066,0.48761 0.0052,0.02474 0.01185,0.04922 0.01574,0.07421 0.02082,0.133564 0.01963,0.427673 0.158006,0.497152 0.09446,0.04743 0.210392,0.02065 0.315587,0.03098 0.03459,-0.02722 0.07274,-0.05043 0.103757,-0.08165 0.04734,-0.04765 0.09298,-0.134017 0.121798,-0.192722 0.06409,-0.130564 0.112771,-0.267339 0.149336,-0.408069 0.08422,-0.320514 0.162465,-0.643258 0.218207,-0.970063 0.03692,-0.254934 0.08285,-0.508258 0.120346,-0.763081 0.04945,-0.370895 -0.47507,-0.440832 -0.524523,-0.06994 z" />
    <circle
       style="fill:#ff9696;fill-opacity:1;stroke:#ffffff;stroke-width:0;stroke-dasharray:none;stroke-opacity:1"
       id="circle17357"
       cx="27.128311"
       cy="-25.839905"
       r="1.766917" />
    <path
       style="fill:#ff9696;fill-opacity:1;stroke:#ffffff;stroke-width:0;stroke-dasharray:none;stroke-opacity:1"
       id="path17359"
       d="m 26.195653,-18.987223 c 0.03707,0 0.07413,0 0.111196,0 0.122628,0 0.248883,-0.0072 0.370727,0.0084 0.01038,0.0013 -0.02107,-0.0013 -0.03162,-0.0019 -0.04398,-0.0215 -0.116615,-0.02355 -0.131939,-0.06452 -0.04443,-0.118854 -0.02046,-0.248705 -0.03162,-0.372998 -0.0031,-0.03428 -0.05458,0.05155 -0.07534,0.0811 -0.02008,0.02859 -0.04137,0.05839 -0.04784,0.09118 -0.01322,0.06709 -0.0069,0.135915 -0.01038,0.203874 0.130424,0.416128 0.397391,0.785719 0.671325,1.14386 0.207677,0.2604 0.444482,0.501956 0.698713,0.730413 0.07978,0.07955 0.178951,0.141146 0.277991,0.201985 0.39447,0.239323 0.794728,-0.232401 0.400257,-0.471724 v 0 c -0.06491,-0.0386 -0.128985,-0.07421 -0.178499,-0.128383 -0.226166,-0.202716 -0.436754,-0.417035 -0.622139,-0.647861 -0.122759,-0.160098 -0.244176,-0.320098 -0.349003,-0.489328 -0.114395,-0.184666 -0.08187,-0.142911 -0.174205,-0.321552 -0.01284,-0.0249 -0.02739,-0.04915 -0.04108,-0.07373 -0.01435,0.02634 -0.02341,0.05103 -0.04567,0.07262 -0.01038,0.0101 -0.0448,0.03774 -0.03354,0.02837 0.147922,-0.122952 0.154242,-0.121975 0.055,-0.451046 -0.01541,-0.0511 -0.104546,-0.05754 -0.156804,-0.0863 -0.03562,-0.0072 -0.07074,-0.01649 -0.106839,-0.02186 -0.180364,-0.02686 -0.367175,-0.0027 -0.548726,-0.01124 -0.485502,0 -0.485502,0.580583 0,0.580583 z" />
    <ellipse
       style="fill:#ff9696;fill-opacity:1;stroke:#ffffff;stroke-width:0;stroke-dasharray:none;stroke-opacity:1"
       id="ellipse17361"
       cx="26.6077"
       cy="-25.256189"
       rx="1.0254431"
       ry="0.96233892" />
    <circle
       style="fill:#ff9696;fill-opacity:1;stroke:#ffffff;stroke-width:0;stroke-dasharray:none;stroke-opacity:1"
       id="circle17363"
       cx="3.4123359"
       cy="-20.780375"
       r="0.79999948" />
    <circle
       style="fill:#ff9696;fill-opacity:1;stroke:#ffffff;stroke-width:0;stroke-dasharray:none;stroke-opacity:1"
       id="circle17365"
       cx="3.0652633"
       cy="-21.569176"
       r="0.79999948" />
    <circle
       style="fill:#ff9696;fill-opacity:1;stroke:#ffffff;stroke-width:0;stroke-dasharray:none;stroke-opacity:1"
       id="circle17367"
       cx="3.3176799"
       cy="-19.96002"
       r="0.79999948" />
    <circle
       style="fill:#ff9696;fill-opacity:1;stroke:#ffffff;stroke-width:0;stroke-dasharray:none;stroke-opacity:1"
       id="circle17369"
       cx="16.998554"
       cy="-12.03892"
       r="0.74147409" />
    <circle
       style="fill:#ff9696;fill-opacity:1;stroke:#ffffff;stroke-width:0;stroke-dasharray:none;stroke-opacity:1"
       id="circle17371"
       cx="17.601131"
       cy="-12.725944"
       r="0.74147409" />
    <circle
       style="fill:#ff9696;fill-opacity:1;stroke:#ffffff;stroke-width:0;stroke-dasharray:none;stroke-opacity:1"
       id="circle17373"
       cx="17.730141"
       cy="-13.252166"
       r="0.74147409" />
    <circle
       style="fill:#ff9696;fill-opacity:1;stroke:#ffffff;stroke-width:0;stroke-dasharray:none;stroke-opacity:1"
       id="circle17375"
       cx="15.968754"
       cy="-31.036114"
       r="0.74147409" />
    <circle
       style="fill:#ff9696;fill-opacity:1;stroke:#ffffff;stroke-width:0;stroke-dasharray:none;stroke-opacity:1"
       id="circle17377"
       cx="16.770195"
       cy="-31.065481"
       r="0.74147409" />
    <circle
       style="fill:#64311d;fill-opacity:1;stroke:#ffffff;stroke-width:0;stroke-dasharray:none;stroke-opacity:1"
       id="circle3780"
       cx="14.647594"
       cy="21.644176"
       r="0.74147409" />
  </g>
</svg>
